<?xml version="1.0" standalone="no"?>
<!DOCTYPE svg PUBLIC "-//W3C//DTD SVG 20010904//EN"
 "http://www.w3.org/TR/2001/REC-SVG-20010904/DTD/svg10.dtd">
<svg version="1.0" xmlns="http://www.w3.org/2000/svg"
 width="474.638046pt" height="452.387370pt" viewBox="0 0 474.638046 452.387370"
 preserveAspectRatio="xMidYMid meet">

<g transform="translate(-144.361954,612.905430) scale(0.100000,-0.100000)"
fill="#000000" stroke="none">
<path d="M3305 6118 c-138 -14 -368 -63 -485 -103 -190 -66 -412 -188 -595
-325 -600 -451 -889 -1179 -745 -1879 22 -109 63 -252 140 -493 l54 -167 -102
-109 c-71 -77 -102 -117 -102 -134 0 -68 72 -191 133 -228 43 -27 91 -25 181
5 120 40 236 32 379 -25 129 -53 176 -89 357 -271 187 -189 240 -233 332 -280
262 -132 557 -141 805 -24 181 85 301 214 340 367 16 62 34 90 49 76 6 -7 40
-219 59 -371 17 -143 35 -198 90 -282 68 -101 199 -185 351 -224 141 -36 257
-46 549 -46 286 0 407 11 561 50 104 27 240 85 267 113 32 35 81 185 151 473
82 334 116 569 116 813 0 116 -1 124 -24 145 -35 33 -120 49 -329 63 -210 13
-209 13 -200 -51 11 -88 -1 -81 136 -82 139 -2 108 -12 -74 -24 l-106 -8 -23
294 c-12 162 -32 401 -44 532 -12 130 -21 237 -19 237 26 0 391 64 404 71 31
16 49 52 49 94 0 48 -14 65 -52 65 -36 0 -38 32 -3 48 31 15 31 20 -4 90 -15
31 -38 91 -51 132 -24 81 -46 131 -64 142 -22 15 -80 8 -101 -12 -11 -10 -25
-16 -31 -12 -6 4 -35 45 -64 92 -91 146 -205 312 -267 391 -211 265 -481 478
-808 639 -190 94 -324 140 -523 180 -241 48 -464 61 -687 38z m330 -278 c283
-20 501 -77 740 -194 350 -171 611 -409 862 -784 35 -53 71 -104 79 -113 15
-17 51 -260 56 -384 l3 -69 -120 -19 c-66 -10 -300 -47 -520 -83 -220 -36
-527 -85 -683 -109 -295 -47 -333 -58 -385 -113 -25 -26 -192 -390 -250 -544
-12 -32 -24 -58 -27 -57 -3 0 -23 28 -45 62 -46 70 -115 127 -195 159 -44 18
-76 22 -155 23 -93 0 -105 -2 -167 -33 -77 -38 -130 -92 -166 -171 -22 -46
-26 -71 -27 -141 0 -79 3 -92 38 -162 69 -140 185 -215 320 -205 37 2 67 4 67
3 0 0 -7 -23 -15 -49 l-14 -48 31 -17 c17 -9 56 -37 87 -62 103 -84 113 -89
217 -105 55 -8 171 -26 259 -40 88 -14 175 -25 193 -25 42 0 42 -21 2 -105
-100 -210 -437 -336 -713 -266 -171 44 -302 128 -418 267 -197 238 -356 340
-620 398 -24 5 -26 9 -26 63 0 47 -16 101 -81 283 -100 281 -163 482 -196 630
-87 394 -32 760 166 1113 111 197 323 437 495 560 292 209 582 312 948 337 61
4 112 8 115 8 3 1 68 -3 145 -8z m1749 -1897 c28 -306 56 -702 56 -789 l0 -81
-71 -7 c-47 -5 -74 -4 -78 3 -4 6 -15 104 -25 218 -9 114 -30 343 -45 508 -16
165 -27 302 -25 304 4 4 126 28 155 30 13 1 18 -29 33 -186z m-334 128 c0 -5
11 -121 25 -257 13 -137 34 -352 45 -479 11 -126 23 -242 26 -257 5 -25 3 -27
-48 -32 -191 -21 -968 -48 -968 -34 0 8 -55 396 -94 658 -19 129 -34 236 -33
237 1 1 58 11 127 22 69 12 292 50 495 85 384 66 425 72 425 57z m-1191 -243
c6 -35 25 -166 41 -293 31 -236 66 -463 76 -502 5 -16 2 -23 -8 -23 -11 0 -18
23 -28 91 -19 134 -33 147 -242 229 -64 24 -108 47 -108 55 0 19 109 303 154
400 37 82 57 105 87 105 13 0 19 -15 28 -62z m-238 -648 c160 -62 152 -56 167
-130 16 -81 60 -334 58 -337 0 0 -93 14 -206 33 -113 19 -215 34 -227 34 -27
0 -28 7 -7 60 16 38 36 51 49 30 10 -17 65 -11 95 10 87 62 48 200 -52 187
-21 -3 -38 -2 -38 2 0 4 9 34 20 66 12 33 23 66 25 73 6 16 -2 18 116 -28z
m2431 -232 c-4 -126 -4 -126 -75 -157 -60 -27 -186 -66 -192 -59 -1 2 -5 55
-9 119 l-7 116 100 16 c54 9 116 23 137 31 22 7 41 14 44 15 3 0 4 -36 2 -81z
m-422 -104 c0 -52 -3 -94 -6 -94 -3 0 -63 22 -133 50 -117 46 -194 90 -180
104 3 3 68 13 145 21 76 9 144 17 149 19 21 7 25 -8 25 -100z m-2400 71 c0
-15 -31 -77 -36 -72 -8 8 16 77 27 77 5 0 9 -2 9 -5z m2000 -139 c42 -38 68
-51 154 -82 49 -18 49 -18 20 -26 -40 -10 -532 -26 -674 -22 -198 6 -518 26
-530 34 -13 8 -37 156 -27 166 3 4 147 10 319 16 172 5 390 14 483 21 l170 12
22 -41 c12 -22 40 -57 63 -78z m-1217 61 c3 -8 8 -44 12 -82 6 -55 5 -67 -6
-63 -13 4 -20 29 -33 116 -5 32 -3 42 8 42 8 0 16 -6 19 -13z m1972 -345 c-33
-160 -92 -395 -108 -432 l-12 -28 -53 47 -53 46 11 175 c5 96 10 198 10 226
l0 51 58 12 c31 6 82 22 112 34 42 17 56 19 58 9 2 -7 -8 -70 -23 -140z m-355
-10 c0 -120 -12 -262 -22 -262 -17 0 -110 94 -133 135 -22 38 -52 152 -42 161
3 3 141 34 190 43 4 0 7 -34 7 -77z m-820 13 c179 0 359 3 400 7 l76 7 16 -68
c9 -37 27 -92 42 -122 36 -78 124 -179 194 -224 l60 -39 -5 -96 c-8 -155 -7
-153 -89 -167 -384 -65 -925 -24 -1084 81 -115 77 -134 121 -176 404 -19 125
-34 228 -34 230 0 2 62 -1 138 -5 75 -4 283 -8 462 -8z m1015 -605 c-3 -5 -25
-15 -50 -23 -44 -16 -45 -15 -45 6 0 12 3 39 6 59 l7 37 43 -35 c24 -20 42
-40 39 -44z"/>
<path d="M2809 2555 c-26 -14 -49 -59 -49 -96 0 -10 13 -33 28 -51 40 -44 84
-43 125 2 24 27 28 39 23 68 -10 66 -76 106 -127 77z"/>
<path d="M3399 2531 c-18 -14 -24 -29 -24 -61 0 -79 94 -130 142 -77 28 30 36
59 24 90 -24 63 -94 87 -142 48z"/>
</g>
</svg>
